<svg width="138" height="68" viewBox="0 0 138 68" fill="none" xmlns="http://www.w3.org/2000/svg">
<g clip-path="url(#clip0_1054_6684)">
<path d="M60.1015 1.4502H46.7472L58.5843 22.0169H45.3359C42.8838 10.027 32.9166 1.4502 20.3562 1.4502H-0.671875V54.1668H20.3562C32.9166 54.1668 42.8662 45.59 45.3183 33.6001H58.5667L46.7296 54.1668H60.0838L75.2727 27.8174L60.1015 1.4502ZM20.3562 42.566H11.3417V13.0334H20.3562C28.6122 13.0334 34.3279 18.763 34.3279 27.7997C34.3279 36.8363 28.6122 42.566 20.3562 42.566Z" fill="#2C2D65"/>
<path d="M75.2723 27.8003L70.8268 20.0723L59.6953 39.4011L64.1409 47.1291L75.2723 27.8003Z" fill="#041C2C"/>
<path d="M130.475 38.4276C133.333 35.9341 135.061 32.4857 135.061 28.1177C135.061 19.0104 127.617 13.0508 118.461 13.0508H97.8742V33.6175H80.8506L92.6877 13.0508H79.3334L64.1445 39.4003L79.3334 65.7497H92.6877L80.8506 45.183H97.8742V65.7497H119.961C129.346 65.7497 136.931 59.6487 136.931 50.3114C136.931 44.9708 134.373 40.9034 130.475 38.4099V38.4276ZM109.888 24.3333H118.444C121.231 24.3333 123.03 26.2963 123.03 29.0019C123.03 31.7076 121.16 33.6706 118.444 33.6706H109.888V24.3333ZM119.961 54.4672H109.888V44.3695H119.961C122.96 44.3695 124.918 46.4739 124.918 49.4095C124.918 52.3451 122.96 54.4495 119.961 54.4495V54.4672Z" fill="#FFD100"/>
</g>
<defs>
<clipPath id="clip0_1054_6684">
<rect width="137.493" height="67.2" fill="white"/>
</clipPath>
</defs>
</svg>
