<svg width="20" height="20" viewBox="0 0 20 20" fill="none" xmlns="http://www.w3.org/2000/svg">
<path d="M18.3327 13.492C18.3327 16.5253 16.5244 18.3337 13.491 18.3337H12.4993C12.041 18.3337 11.666 17.9587 11.666 17.5003V12.692C11.666 12.467 11.8493 12.2753 12.0743 12.2753L13.541 12.2503C13.6577 12.242 13.7577 12.1587 13.7827 12.042L14.0744 10.4503C14.0994 10.3003 13.9827 10.1587 13.8243 10.1587L12.0493 10.1837C11.816 10.1837 11.6327 10.0003 11.6244 9.77534L11.591 7.73366C11.591 7.60032 11.6993 7.48367 11.841 7.48367L13.841 7.45033C13.9827 7.45033 14.091 7.342 14.091 7.20034L14.0577 5.20032C14.0577 5.05865 13.9494 4.95033 13.8077 4.95033L11.5577 4.98367C10.1743 5.00867 9.07436 6.14199 9.09936 7.52532L9.14102 9.81699C9.14935 10.0503 8.96603 10.2337 8.73269 10.242L7.73268 10.2587C7.59101 10.2587 7.48269 10.367 7.48269 10.5086L7.50769 12.092C7.50769 12.2337 7.61601 12.342 7.75768 12.342L8.75769 12.3253C8.99102 12.3253 9.17434 12.5087 9.18267 12.7337L9.25767 17.4837C9.266 17.9503 8.891 18.3337 8.42434 18.3337H6.50768C3.47435 18.3337 1.66602 16.5253 1.66602 13.4837V6.50866C1.66602 3.47532 3.47435 1.66699 6.50768 1.66699H13.491C16.5244 1.66699 18.3327 3.47532 18.3327 6.50866V13.492Z" fill="white"/>
</svg>
