<svg width="14" height="14" viewBox="0 0 14 14" fill="none" xmlns="http://www.w3.org/2000/svg">
<g clip-path="url(#clip0_1054_17196)">
<path d="M8.06997 9.66402C8.19044 9.71934 8.32617 9.73198 8.45479 9.69986C8.58341 9.66773 8.69725 9.59275 8.77755 9.48726L8.98463 9.21602C9.09331 9.07112 9.23422 8.95352 9.39622 8.87252C9.55822 8.79152 9.73685 8.74935 9.91797 8.74935H11.668C11.9774 8.74935 12.2741 8.87227 12.4929 9.09106C12.7117 9.30985 12.8346 9.6066 12.8346 9.91602V11.666C12.8346 11.9754 12.7117 12.2722 12.4929 12.491C12.2741 12.7098 11.9774 12.8327 11.668 12.8327C8.8832 12.8327 6.21248 11.7264 4.24335 9.7573C2.27422 7.78817 1.16797 5.11746 1.16797 2.33268C1.16797 2.02326 1.29089 1.72652 1.50968 1.50772C1.72847 1.28893 2.02522 1.16602 2.33464 1.16602H4.08464C4.39405 1.16602 4.6908 1.28893 4.90959 1.50772C5.12839 1.72652 5.2513 2.02326 5.2513 2.33268V4.08268C5.2513 4.2638 5.20913 4.44243 5.12813 4.60443C5.04713 4.76643 4.92953 4.90734 4.78464 5.01602L4.51164 5.22077C4.40454 5.30254 4.32906 5.41886 4.29801 5.54997C4.26696 5.68108 4.28226 5.8189 4.3413 5.94002C5.13853 7.55927 6.44972 8.86881 8.06997 9.66402Z" stroke="#374151" stroke-width="1.33333" stroke-linecap="round" stroke-linejoin="round"/>
</g>
<defs>
<clipPath id="clip0_1054_17196">
<rect width="14" height="14" fill="white"/>
</clipPath>
</defs>
</svg>
