<svg width="33" height="33" viewBox="0 0 33 33" fill="none" xmlns="http://www.w3.org/2000/svg">
<rect width="33" height="33" rx="16.5" fill="white" fill-opacity="0.2"/>
<g clip-path="url(#clip0_1054_6428)">
<path d="M16.5 24.5C20.9107 24.5 24.5 20.9107 24.5 16.5C24.5 12.0893 20.9107 8.5 16.5 8.5C12.0893 8.5 8.5 12.0893 8.5 16.5C8.5 20.9107 12.0893 24.5 16.5 24.5ZM16.5 9.56665C20.324 9.56665 23.4334 12.676 23.4334 16.5C23.4334 20.324 20.324 23.4334 16.5 23.4334C12.676 23.4334 9.56665 20.324 9.56665 16.5C9.56665 12.676 12.676 9.56665 16.5 9.56665Z" fill="white"/>
<path d="M18.8315 19.0495C18.9302 19.1295 19.0475 19.1669 19.1648 19.1669C19.3222 19.1669 19.4768 19.0975 19.5808 18.9669C19.7648 18.7375 19.7275 18.4015 19.4982 18.2175L17.0315 16.2442V12.2335C17.0315 11.9402 16.7915 11.7002 16.4982 11.7002C16.2048 11.7002 15.9648 11.9402 15.9648 12.2335V16.5002C15.9648 16.6629 16.0395 16.8149 16.1648 16.9162L18.8315 19.0495Z" fill="white"/>
</g>
<defs>
<clipPath id="clip0_1054_6428">
<rect width="16" height="16" fill="white" transform="translate(8.5 8.5)"/>
</clipPath>
</defs>
</svg>
