<svg width="33" height="33" viewBox="0 0 33 33" fill="none" xmlns="http://www.w3.org/2000/svg">
<rect width="33" height="33" rx="16.5" fill="white" fill-opacity="0.2"/>
<g clip-path="url(#clip0_1054_6440)">
<path d="M17.2081 15.5003V11.9451C17.9686 12.0734 18.6857 12.3855 19.2988 12.8541C19.421 12.9379 19.5644 12.9834 19.7129 12.9854C20.1886 12.9854 20.5764 12.6026 20.5815 12.1269C20.5825 11.9229 20.5027 11.727 20.3593 11.5815C19.4735 10.823 18.3625 10.3756 17.198 10.309V9.11717C17.198 8.77679 16.9223 8.50107 16.5819 8.50107C16.5749 8.50007 16.5678 8.50007 16.5607 8.50007C16.2153 8.49501 15.9305 8.77076 15.9254 9.11717V10.2686C13.653 10.4301 12.1077 11.834 12.1077 13.7025C12.1077 15.9951 14.057 16.6315 15.9254 17.1364V21.1764C14.9397 21.0441 14.0105 20.635 13.249 19.9947C13.1056 19.8806 12.9278 19.817 12.744 19.8129C12.2784 19.8452 11.9198 20.2351 11.9259 20.7017C11.9249 20.9057 12.0046 21.1017 12.148 21.2471C13.1914 22.1864 14.5326 22.7267 15.9355 22.7722V23.8832C15.9355 23.8902 15.9365 23.8973 15.9365 23.9044C15.9526 24.2498 16.2466 24.5164 16.592 24.4993C16.9323 24.4993 17.2081 24.2235 17.2081 23.8832V22.752C19.9653 22.5702 21.0763 20.8936 21.0763 19.116C21.0764 16.7325 19.0766 16.0053 17.2081 15.5003ZM15.9356 15.1771C14.8347 14.8539 13.9762 14.5206 13.9762 13.5813C13.9762 12.642 14.7539 11.9653 15.9356 11.8744V15.1771ZM17.2081 21.1966V17.5202C18.3494 17.8434 19.2382 18.2777 19.2281 19.3382C19.2281 20.1058 18.7029 21.0148 17.2081 21.1966Z" fill="white"/>
</g>
<defs>
<clipPath id="clip0_1054_6440">
<rect width="16" height="16" fill="white" transform="translate(8.5 8.5)"/>
</clipPath>
</defs>
</svg>
