<svg width="33" height="33" viewBox="0 0 33 33" fill="none" xmlns="http://www.w3.org/2000/svg">
<rect width="33" height="33" rx="16.5" fill="white" fill-opacity="0.2"/>
<path d="M21.8333 20.5C21.6333 20.5 21.5 20.4333 21.3667 20.3L16.9 15.7667L15.3 17.3667C15.0333 17.6333 14.6333 17.6333 14.3667 17.3667L10.7 13.6333C10.4333 13.3667 10.4333 12.9667 10.7 12.7C10.9667 12.4333 11.3667 12.4333 11.6333 12.7L14.8333 15.9667L16.4333 14.3667C16.7 14.1 17.1 14.1 17.3667 14.3667L22.3 19.3667C22.5667 19.6333 22.5667 20.0333 22.3 20.3C22.1667 20.4333 22.0333 20.5 21.8333 20.5Z" fill="white"/>
<path d="M21.8346 20.4993H17.8346C17.4346 20.4993 17.168 20.2327 17.168 19.8327C17.168 19.4327 17.4346 19.166 17.8346 19.166H21.168V15.8327C21.168 15.4327 21.4346 15.166 21.8346 15.166C22.2346 15.166 22.5013 15.4327 22.5013 15.8327V19.8327C22.5013 20.2327 22.2346 20.4993 21.8346 20.4993Z" fill="white"/>
</svg>
