<svg width="17" height="15" viewBox="0 0 17 15" fill="none" xmlns="http://www.w3.org/2000/svg">
<path d="M16.1875 6.77344L9.71875 0.210938C9.4375 -0.0703125 9 -0.0703125 8.71875 0.210938C8.4375 0.492188 8.4375 0.929688 8.71875 1.21094L13.9687 6.55469H0.6875C0.3125 6.55469 0 6.86719 0 7.24219C0 7.61719 0.3125 7.96094 0.6875 7.96094H14.0312L8.71875 13.3672C8.4375 13.6484 8.4375 14.0859 8.71875 14.3672C8.84375 14.4922 9.03125 14.5547 9.21875 14.5547C9.40625 14.5547 9.59375 14.4922 9.71875 14.3359L16.1875 7.77344C16.4687 7.49219 16.4687 7.05469 16.1875 6.77344Z" fill="white"/>
</svg>
